 http://i.imgbox.com/achcZ2z5.png

 
http://static.djbooth.net/pics-tracks/wizkhalifa-letitgo2.jpg




General
Complete name                            :Wiz Khalifa - Let It Go Feat Akon 1080p Esubs -ViVeKRaNa.mp4
Format                                   : MPEG-4
Format profile                           : Base Media / Version 2
Codec ID                                 : mp42
File size                                : 54.1 MiB
Duration                                 : 4mn 43s
Overall bit rate mode                    : Variable
Overall bit rate                         : 1 600 Kbps
Encoded date                             : UTC 2013-04-16 12:35:25
Tagged date                              : UTC 2013-04-16 12:42:55
Writing application                      : HandBrake 0.9.8 2012071700

Video
ID                                       : 1
Format                                   : AVC
Format/Info                              : Advanced Video Codec
Format profile                           : Main@L4.0
Format settings, CABAC                   : Yes
Format settings, ReFrames                : 4 frames
Codec ID                                 : avc1
Codec ID/Info                            : Advanced Video Coding
Duration                                 : 4mn 43s
Bit rate mode                            : Variable
Bit rate                                 : 1 500 Kbps
Width                                    : 1 918 pixels
Height                                   : 1 012 pixels
Display aspect ratio                     : 1.895
Frame rate mode                          : Variable
Frame rate                               : 23.976 fps
Minimum frame rate                       : 23.974 fps
Maximum frame rate                       : 23.981 fps
Color space                              : YUV
Chroma subsampling                       : 4:2:0
Bit depth                                : 8 bits
Scan type                                : Progressive
Bits/(Pixel*Frame)                       : 0.032
Stream size                              : 50.7 MiB (94%)
Writing library                          : x264 core 120
Encoded date                             : UTC 2013-04-16 12:35:25
Tagged date                              : UTC 2013-04-16 12:42:55
Color primaries                          : BT.709
Transfer characteristics                 : BT.709
Matrix coefficients                      : BT.709

Audio
ID                                       : 2
Format                                   : AAC
Format/Info                              : Advanced Audio Codec
Format profile                           : LC
Codec ID                                 : 40
Duration                                 : 4mn 43s
Bit rate mode                            : Variable
Bit rate                                 : 93.8 Kbps
Maximum bit rate                         : 114 Kbps
Channel(s)                               : 2 channels
Channel positions                        : Front: L R
Sampling rate                            : 44.1 KHz
Compression mode                         : Lossy
Delay relative to video                  : 83ms
Stream size                              : 3.17 MiB (6%)
Encoded date                             : UTC 2013-04-16 12:35:25
Tagged date                              : UTC 2013-04-16 12:42:55

Text
ID                                       : 3
Format                                   : Timed text
Muxing mode                              : sbtl
Codec ID                                 : tx3g
Duration                                 : 4mn 35s
Bit rate mode                            : Variable
Bit rate                                 : 92 bps
Delay relative to video                  : 83ms
Stream size                              : 3.09 KiB (0%)
Language                                 : English
Encoded date                             : UTC 2013-04-16 12:35:25
Tagged date                              : UTC 2013-04-16 12:42:55











